<svg width="183" height="59" viewBox="0 0 183 59" fill="none" xmlns="http://www.w3.org/2000/svg">
<path d="M143 23.0052C140.925 21.9677 141.54 27.4156 141 29.6719C139.661 35.2646 138.404 40.8722 137 46.4497C135.335 53.0621 133.92 58.2095 133 49.0052" stroke="#FDFDFD" stroke-width="3" stroke-linecap="round"/>
<path d="M120 28.0052C128.978 18.8696 139.744 11.5252 150.111 4.0608C152.822 2.10912 154 0.640808 154 4.00524" stroke="#FDFDFD" stroke-width="3" stroke-linecap="round"/>
<path d="M141 45.0052C139.24 45.5918 137.764 51.1791 139.889 52.0052C143.825 53.5359 150.755 39.1012 148.333 42.5608C147.185 44.2016 146.709 48.1208 147.667 49.8941C149.307 52.9326 153.061 45.7594 153.667 44.8941C154.729 43.3767 154.023 48.5245 154.222 49.3386C155.057 52.7428 159.042 47.5 159.667 46.6719C163.767 41.2325 159.348 55.681 164 49.6719C165.582 47.6289 166.385 45.133 167 42.6719C167.523 40.5802 166.277 46.9668 166.444 49.1164C166.984 56.0377 174.053 45.1643 174.222 45.6719C176.073 51.2233 179.365 50.3639 181 46.0052" stroke="#FDFDFD" stroke-width="3" stroke-linecap="round"/>
<path d="M180 31.0052L179 32.0052" stroke="#FDFDFD" stroke-width="3" stroke-linecap="round"/>
<path d="M33.6074 23.1489C33.3447 18.6821 31.707 16.4791 27.3586 14.9686C14.7211 10.5787 5.08876 21.8636 2.47711 33.6582C-0.264682 46.0405 9.09655 65.3735 23.2117 53.8247C28.5065 49.4926 31.6068 43.3062 34.8572 37.4642C36.907 33.78 36.675 34.6506 36.675 37.4642" stroke="#FDFDFD" stroke-width="3" stroke-linecap="round"/>
<path d="M33.1869 46.8988C31.6593 47.408 29.9239 53.3813 31.8536 53.7321C33.4883 54.0293 35.5979 52.2153 36.6869 51.2876C39.983 48.4799 42.4103 46.5434 46.9647 46.3432C56.5727 45.9209 47.0321 43.1897 44.2425 45.121C37.4766 49.805 45.3169 56.4821 50.7425 49.3432C54.2966 44.6667 50.1741 47.5281 52.5202 49.2876C54.3969 50.6951 58.0385 49.1917 59.8536 48.4543C63.0597 47.1518 61.2443 48.1033 61.6314 50.2321C62.204 53.3815 67.5318 40.7682 66.7425 48.3988C65.8835 56.7025 75.1869 43.6893 75.1869 47.0654C75.1869 59.2275 82.4209 38.8193 82.8536 37.0099C82.9816 36.4744 87.0444 10.6389 81.0758 17.0099C75.7916 22.6503 76.2951 33.9807 77.7425 40.9543C79.1715 47.8398 82.6231 49.3092 88.4091 46.121C90.7595 44.8259 93.4181 43.9372 95.9647 43.121C96.3933 42.9836 102.883 41.6394 102.798 41.3432C100.936 34.8279 89.0474 50.8507 100.298 48.5654C103.057 48.005 102.284 45.1581 103.631 43.5654C104.868 42.1041 110.22 44.8886 111.465 45.4543C114.617 46.8871 113.638 49.1141 111.52 51.2321C109.498 53.2539 104.61 53.125 107.52 51.3432C111.291 49.0347 116.252 51.9938 120.298 51.4543C126.192 50.6684 127.909 47.454 130.187 42.8988" stroke="#FDFDFD" stroke-width="3" stroke-linecap="round"/>
</svg>
